<svg xmlns="http://www.w3.org/2000/svg" viewBox="0 0 512 512">
  <rect width="512" height="512" rx="120" fill="#07070F"/>
  <defs>
    <linearGradient id="grad" x1="0" y1="0" x2="1" y2="1">
      <stop offset="0%" stop-color="#818CF8"/>
      <stop offset="100%" stop-color="#C084FC"/>
    </linearGradient>
    <linearGradient id="grad2" x1="0" y1="1" x2="1" y2="0">
      <stop offset="0%" stop-color="#22D3EE"/>
      <stop offset="100%" stop-color="#6366F1"/>
    </linearGradient>
  </defs>
  <!-- Four-pointed star / sparkle -->
  <path d="M256 80 C258 80 270 186 322 234 C374 282 432 256 432 256 C432 256 374 230 322 278 C270 326 258 432 256 432 C254 432 242 326 190 278 C138 230 80 256 80 256 C80 256 138 282 190 234 C242 186 254 80 256 80 Z" fill="url(#grad)"/>
  <!-- Small accent star -->
  <path d="M380 136 C380.8 136 384 162 398 174 C412 186 432 180 432 180 C432 180 412 174 398 186 C384 198 380 224 380 224 C380 224 376 198 362 186 C348 174 328 180 328 180 C328 180 348 186 362 174 C376 162 380 136 380 136 Z" fill="url(#grad2)" opacity="0.85"/>
</svg>
